<?xml version="1.0" encoding="UTF-8"?>
<!DOCTYPE svg PUBLIC "-//W3C//DTD SVG 1.1//EN" "http://www.w3.org/Graphics/SVG/1.1/DTD/svg11.dtd">
<svg xmlns="http://www.w3.org/2000/svg" version="1.1" width="512px" height="512px" style="shape-rendering:geometricPrecision; text-rendering:geometricPrecision; image-rendering:optimizeQuality; fill-rule:evenodd; clip-rule:evenodd" xmlns:xlink="http://www.w3.org/1999/xlink">
<g><path style="opacity:0.965" fill="#010100" d="M 212.5,-0.5 C 219.167,-0.5 225.833,-0.5 232.5,-0.5C 248.49,3.98445 259.657,13.9844 266,29.5C 271.494,29.9144 275.494,32.581 278,37.5C 280,48.1667 280,58.8333 278,69.5C 276.078,73.5966 272.912,75.9299 268.5,76.5C 268.802,95.5341 259.469,106.201 240.5,108.5C 224.799,107.497 210.466,102.664 197.5,94C 187.673,85.515 181.007,75.015 177.5,62.5C 170.514,59.869 168.514,55.2024 171.5,48.5C 172.914,47.376 174.414,46.376 176,45.5C 177.648,21.6974 189.815,6.36408 212.5,-0.5 Z"/></g>
<g><path style="opacity:1" fill="#fbcfa2" d="M 217.5,40.5 C 216.549,41.9187 216.216,43.5853 216.5,45.5C 208.5,45.5 200.5,45.5 192.5,45.5C 192.5,43.5 192.5,41.5 192.5,39.5C 196.274,24.3965 205.94,16.0632 221.5,14.5C 233.615,14.7226 242.948,19.8893 249.5,30C 241.5,30.3333 233.5,30.6667 225.5,31C 220.822,32.5464 218.156,35.713 217.5,40.5 Z"/></g>
<g><path style="opacity:1" fill="#92795e" d="M 192.5,39.5 C 192.5,41.5 192.5,43.5 192.5,45.5C 200.5,45.5 208.5,45.5 216.5,45.5C 216.216,43.5853 216.549,41.9187 217.5,40.5C 217.5,42.5 217.5,44.5 217.5,46.5C 208.833,46.5 200.167,46.5 191.5,46.5C 191.198,43.9407 191.532,41.6074 192.5,39.5 Z"/></g>
<g><path style="opacity:1" fill="#c4eaf9" d="M 231.5,45.5 C 242.167,45.5 252.833,45.5 263.5,45.5C 263.5,50.8333 263.5,56.1667 263.5,61.5C 252.833,61.5 242.167,61.5 231.5,61.5C 231.5,56.1667 231.5,50.8333 231.5,45.5 Z"/></g>
<g><path style="opacity:1" fill="#675542" d="M 216.5,61.5 C 208.757,60.8701 201.424,61.5367 194.5,63.5C 193.596,62.791 193.263,61.791 193.5,60.5C 201.352,60.1746 209.018,60.508 216.5,61.5 Z"/></g>
<g><path style="opacity:1" fill="#f8cda0" d="M 216.5,61.5 C 217.076,65.2318 218.243,68.8984 220,72.5C 221.579,74.0412 223.413,75.2078 225.5,76C 234.827,76.4998 244.161,76.6665 253.5,76.5C 253.928,86.663 249.094,91.9963 239,92.5C 223.965,91.98 211.299,86.3133 201,75.5C 198.173,71.8446 196.007,67.8446 194.5,63.5C 201.424,61.5367 208.757,60.8701 216.5,61.5 Z"/></g>
<g><path style="opacity:0.974" fill="#010101" d="M 363.5,237.5 C 364.885,240.546 364.719,243.546 363,246.5C 355.916,250.959 348.75,255.292 341.5,259.5C 340.506,264.456 340.173,269.456 340.5,274.5C 371.583,261.795 402.583,248.795 433.5,235.5C 434.665,225.851 434.832,216.184 434,206.5C 419.743,215.047 405.243,223.213 390.5,231C 386.469,231.818 383.136,230.651 380.5,227.5C 380.107,224.07 380.773,220.904 382.5,218C 398.671,208.414 415.004,199.08 431.5,190C 439.738,187.4 445.571,189.9 449,197.5C 449.667,212.167 449.667,226.833 449,241.5C 448.214,244.583 446.381,246.749 443.5,248C 435.541,251.597 427.541,255.097 419.5,258.5C 418.667,334.831 418.167,411.164 418,487.5C 414.728,499.601 407.228,507.601 395.5,511.5C 291.833,511.5 188.167,511.5 84.5,511.5C 64.9524,504.075 57.7857,490.075 63,469.5C 67.2095,458.623 75.0428,452.123 86.5,450C 108.5,449.333 130.5,449.333 152.5,450C 155.493,451.159 157.16,453.325 157.5,456.5C 156.945,459.787 155.278,462.287 152.5,464C 141.505,464.5 130.505,464.667 119.5,464.5C 121.766,469.564 123.099,474.898 123.5,480.5C 122.987,485.707 121.654,490.707 119.5,495.5C 199.833,496.833 280.167,496.833 360.5,495.5C 355.245,485.107 355.245,474.773 360.5,464.5C 300.499,464.667 240.499,464.5 180.5,464C 178.211,462.008 176.877,459.508 176.5,456.5C 176.84,453.325 178.507,451.159 181.5,450C 201.831,449.5 222.164,449.333 242.5,449.5C 242.667,419.165 242.5,388.832 242,358.5C 239,355.5 236,352.5 233,349.5C 227.333,358.833 221.667,368.167 216,377.5C 211.385,383.724 205.218,387.224 197.5,388C 174.836,388.5 152.169,388.667 129.5,388.5C 131.37,401.058 127.703,411.558 118.5,420C 115.618,421.608 112.618,422.941 109.5,424C 100.398,424.942 91.398,424.609 82.5,423C 79.8647,421.039 78.0314,418.539 77,415.5C 76.3333,391.833 76.3333,368.167 77,344.5C 78.5,340.333 81.3333,337.5 85.5,336C 117.072,335.829 148.572,335.329 180,334.5C 184.7,326.628 189.2,318.628 193.5,310.5C 189.481,306.315 185.647,301.982 182,297.5C 180.107,294.382 178.774,291.049 178,287.5C 177.5,251.835 177.333,216.168 177.5,180.5C 170.5,180.5 163.5,180.5 156.5,180.5C 156.667,199.17 156.5,217.836 156,236.5C 153.833,245.333 148.333,250.833 139.5,253C 133.5,253.667 127.5,253.667 121.5,253C 113.099,250.932 107.599,245.766 105,237.5C 104.023,206.106 104.356,174.772 106,143.5C 109.887,135.129 116.387,129.963 125.5,128C 132.5,127.333 139.5,127.333 146.5,128C 149.789,129.41 151.456,131.91 151.5,135.5C 150.69,138.27 149.023,140.437 146.5,142C 139.421,142.114 132.421,142.781 125.5,144C 123.291,145.873 121.458,148.04 120,150.5C 119.333,178.167 119.333,205.833 120,233.5C 122.075,237.537 125.408,239.204 130,238.5C 134.693,238.985 138.36,237.319 141,233.5C 141.333,211.833 141.667,190.167 142,168.5C 142.833,167.667 143.667,166.833 144.5,166C 165.411,164.689 186.411,164.022 207.5,164C 215.53,158.759 216.53,152.425 210.5,145C 199.263,143.71 187.93,143.043 176.5,143C 173.108,141.458 171.108,138.958 170.5,135.5C 170.544,131.91 172.211,129.41 175.5,128C 200.216,127.039 224.883,127.372 249.5,129C 252.661,130.413 255.661,132.08 258.5,134C 269.681,145.348 281.014,156.514 292.5,167.5C 304.986,155.514 317.319,143.348 329.5,131C 342.772,123.531 354.605,125.365 365,136.5C 373.513,146.096 374.513,156.43 368,167.5C 348.167,187.333 328.333,207.167 308.5,227C 306.112,228.861 303.446,230.194 300.5,231C 295.167,231.667 289.833,231.667 284.5,231C 277.548,228.06 271.714,223.56 267,217.5C 266.667,241.5 266.333,265.5 266,289.5C 264.56,293.547 262.726,297.38 260.5,301C 270.291,311.792 280.457,322.292 291,332.5C 292.275,334.717 293.275,337.051 294,339.5C 295.44,363.795 295.94,388.128 295.5,412.5C 321.697,411.031 333.697,423.364 331.5,449.5C 344.833,449.5 358.167,449.5 371.5,449.5C 371.833,392.829 371.5,336.163 370.5,279.5C 361.5,283.333 352.5,287.167 343.5,291C 335.306,293.595 329.473,291.095 326,283.5C 325.333,273.5 325.333,263.5 326,253.5C 326.635,252.034 327.469,250.7 328.5,249.5C 337.702,243.293 347.368,237.959 357.5,233.5C 360.286,233.877 362.286,235.211 363.5,237.5 Z"/></g>
<g><path style="opacity:1" fill="#fbcfa2" d="M 151.5,135.5 C 157.833,135.5 164.167,135.5 170.5,135.5C 171.108,138.958 173.108,141.458 176.5,143C 187.93,143.043 199.263,143.71 210.5,145C 216.53,152.425 215.53,158.759 207.5,164C 186.411,164.022 165.411,164.689 144.5,166C 143.667,166.833 142.833,167.667 142,168.5C 141.667,190.167 141.333,211.833 141,233.5C 138.36,237.319 134.693,238.985 130,238.5C 125.408,239.204 122.075,237.537 120,233.5C 119.333,205.833 119.333,178.167 120,150.5C 121.458,148.04 123.291,145.873 125.5,144C 132.421,142.781 139.421,142.114 146.5,142C 149.023,140.437 150.69,138.27 151.5,135.5 Z"/></g>
<g><path style="opacity:1" fill="#fbba84" d="M 341.5,141.5 C 343.527,141.338 345.527,141.505 347.5,142C 350.333,144.833 353.167,147.667 356,150.5C 356.755,153.303 356.422,155.97 355,158.5C 336.167,177.333 317.333,196.167 298.5,215C 294.471,216.913 290.471,216.913 286.5,215C 280,208.5 273.5,202 267,195.5C 266.333,185.167 266.333,174.833 267,164.5C 274.5,172 282,179.5 289.5,187C 291.167,187.667 292.833,187.667 294.5,187C 310.366,171.966 326.033,156.8 341.5,141.5 Z"/></g>
<g><path style="opacity:1" fill="#fec243" d="M 227.5,143.5 C 229.5,143.5 231.5,143.5 233.5,143.5C 233.975,171.897 233.475,200.23 232,228.5C 229.559,234.608 225.392,239.108 219.5,242C 210.902,243.376 202.235,243.876 193.5,243.5C 193.5,222.167 193.5,200.833 193.5,179.5C 204.656,181.255 214.489,178.588 223,171.5C 229.653,162.988 231.153,153.655 227.5,143.5 Z"/></g>
<g><path style="opacity:1" fill="#f8ae36" d="M 227.5,143.5 C 232.316,142.35 237.316,142.184 242.5,143C 246.573,144.072 249.407,146.572 251,150.5C 251.5,185.832 251.667,221.165 251.5,256.5C 231.833,256.5 212.167,256.5 192.5,256.5C 192.169,230.661 192.502,204.995 193.5,179.5C 193.5,200.833 193.5,222.167 193.5,243.5C 202.235,243.876 210.902,243.376 219.5,242C 225.392,239.108 229.559,234.608 232,228.5C 233.475,200.23 233.975,171.897 233.5,143.5C 231.5,143.5 229.5,143.5 227.5,143.5 Z"/></g>
<g><path style="opacity:0.996" fill="#0065c2" d="M 363.5,237.5 C 369.367,234.404 375.033,231.071 380.5,227.5C 383.136,230.651 386.469,231.818 390.5,231C 405.243,223.213 419.743,215.047 434,206.5C 434.832,216.184 434.665,225.851 433.5,235.5C 402.583,248.795 371.583,261.795 340.5,274.5C 340.173,269.456 340.506,264.456 341.5,259.5C 348.75,255.292 355.916,250.959 363,246.5C 364.719,243.546 364.885,240.546 363.5,237.5 Z"/></g>
<g><path style="opacity:1" fill="#0054a2" d="M 401.5,265.5 C 402.167,296.498 402.5,327.665 402.5,359C 402.5,390.507 401.833,421.674 400.5,452.5C 396.295,451.09 391.962,450.423 387.5,450.5C 387.333,390.832 387.5,331.166 388,271.5C 392.382,269.207 396.882,267.207 401.5,265.5 Z"/></g>
<g><path style="opacity:1" fill="#004483" d="M 401.5,265.5 C 401.56,264.957 401.893,264.624 402.5,264.5C 403.667,327.831 403.833,391.164 403,454.5C 402.005,453.934 401.172,453.267 400.5,452.5C 401.833,421.674 402.5,390.507 402.5,359C 402.5,327.665 402.167,296.498 401.5,265.5 Z"/></g>
<g><path style="opacity:1" fill="#00bef7" d="M 192.5,271.5 C 212.167,271.5 231.833,271.5 251.5,271.5C 252.013,277.358 251.346,283.025 249.5,288.5C 248.635,289.583 247.635,289.749 246.5,289C 243.469,284.954 239.636,282.12 235,280.5C 228.46,282.785 226.794,287.118 230,293.5C 239.348,302.681 248.514,312.014 257.5,321.5C 252.848,326.652 248.015,331.652 243,336.5C 227,320.5 211,304.5 195,288.5C 192.722,283.1 191.889,277.434 192.5,271.5 Z"/></g>
<g><path style="opacity:1" fill="#01bdf6" d="M 205.5,321.5 C 210.965,326.464 216.298,331.63 221.5,337C 219.032,341.63 216.366,346.13 213.5,350.5C 208.015,345.515 202.681,340.348 197.5,335C 199.995,330.352 202.662,325.852 205.5,321.5 Z"/></g>
<g><path style="opacity:1" fill="#facfa1" d="M 268.5,332.5 C 272.498,335.665 275.998,339.332 279,343.5C 279.5,355.495 279.667,367.495 279.5,379.5C 272.167,379.5 264.833,379.5 257.5,379.5C 257.666,370.161 257.5,360.827 257,351.5C 255.916,350.335 255.083,349.002 254.5,347.5C 259.188,342.48 263.855,337.48 268.5,332.5 Z"/></g>
<g><path style="opacity:1" fill="#f9b983" d="M 187.5,349.5 C 188.552,349.351 189.552,349.517 190.5,350C 195.661,354.161 200.494,358.661 205,363.5C 204.879,366.664 203.379,369.164 200.5,371C 187.599,372.462 174.599,372.962 161.5,372.5C 161.5,365.167 161.5,357.833 161.5,350.5C 170.349,350.826 179.016,350.493 187.5,349.5 Z"/></g>
<g><path style="opacity:1" fill="#731c28" d="M 113.5,351.5 C 106.5,351.5 99.5,351.5 92.5,351.5C 92.5,370.833 92.5,390.167 92.5,409.5C 91.5029,390.007 91.1696,370.34 91.5,350.5C 99.0191,350.175 106.352,350.508 113.5,351.5 Z"/></g>
<g><path style="opacity:1" fill="#e4384f" d="M 113.5,351.5 C 113.959,369.236 113.459,386.902 112,404.5C 110.048,406.894 107.548,408.394 104.5,409C 100.514,409.499 96.5138,409.666 92.5,409.5C 92.5,390.167 92.5,370.833 92.5,351.5C 99.5,351.5 106.5,351.5 113.5,351.5 Z"/></g>
<g><path style="opacity:1" fill="#9dadb1" d="M 146.5,351.5 C 140.833,351.5 135.167,351.5 129.5,351.5C 129.5,358.5 129.5,365.5 129.5,372.5C 128.508,365.352 128.175,358.019 128.5,350.5C 134.69,350.177 140.69,350.51 146.5,351.5 Z"/></g>
<g><path style="opacity:1" fill="#def5fc" d="M 146.5,351.5 C 146.5,358.5 146.5,365.5 146.5,372.5C 140.833,372.5 135.167,372.5 129.5,372.5C 129.5,365.5 129.5,358.5 129.5,351.5C 135.167,351.5 140.833,351.5 146.5,351.5 Z"/></g>
<g><path style="opacity:1" fill="#def6fc" d="M 258.5,394.5 C 265.5,394.5 272.5,394.5 279.5,394.5C 279.5,400.5 279.5,406.5 279.5,412.5C 272.5,412.5 265.5,412.5 258.5,412.5C 258.5,406.5 258.5,400.5 258.5,394.5 Z"/></g>
<g><path style="opacity:1" fill="#91a0a5" d="M 258.5,394.5 C 258.5,400.5 258.5,406.5 258.5,412.5C 265.5,412.5 272.5,412.5 279.5,412.5C 272.352,413.492 265.019,413.825 257.5,413.5C 257.177,406.978 257.51,400.645 258.5,394.5 Z"/></g>
<g><path style="opacity:1" fill="#e3384f" d="M 306.5,428.5 C 311.305,429.132 314.472,431.799 316,436.5C 316.499,440.821 316.666,445.154 316.5,449.5C 297.167,449.5 277.833,449.5 258.5,449.5C 258.5,442.5 258.5,435.5 258.5,428.5C 274.5,428.5 290.5,428.5 306.5,428.5 Z"/></g>
<g><path style="opacity:1" fill="#5e1721" d="M 306.5,428.5 C 290.5,428.5 274.5,428.5 258.5,428.5C 258.5,435.5 258.5,442.5 258.5,449.5C 277.833,449.5 297.167,449.5 316.5,449.5C 297.007,450.497 277.34,450.83 257.5,450.5C 257.5,442.833 257.5,435.167 257.5,427.5C 274.009,427.17 290.342,427.504 306.5,428.5 Z"/></g>
<g><path style="opacity:0.998" fill="#0065c2" d="M 157.5,456.5 C 163.833,456.5 170.167,456.5 176.5,456.5C 176.877,459.508 178.211,462.008 180.5,464C 240.499,464.5 300.499,464.667 360.5,464.5C 355.245,474.773 355.245,485.107 360.5,495.5C 280.167,496.833 199.833,496.833 119.5,495.5C 121.654,490.707 122.987,485.707 123.5,480.5C 123.099,474.898 121.766,469.564 119.5,464.5C 130.505,464.667 141.505,464.5 152.5,464C 155.278,462.287 156.945,459.787 157.5,456.5 Z"/></g>
<g><path style="opacity:1" fill="#c3e9f7" d="M 88.5,464.5 C 101.998,464.496 108.498,471.163 108,484.5C 103.055,495.927 94.8879,499.093 83.5,494C 72.9429,482.063 74.6096,472.23 88.5,464.5 Z"/></g>
<g><path style="opacity:1" fill="#c3e9f8" d="M 384.5,464.5 C 398.72,465.305 404.554,472.639 402,486.5C 399.229,493.473 394.062,496.806 386.5,496.5C 375.586,494.364 370.752,487.697 372,476.5C 374.208,470.337 378.375,466.337 384.5,464.5 Z"/></g>
</svg>
